<svg xmlns="http://www.w3.org/2000/svg" viewBox="0 0 122.12 72.56"><defs><style>.cls-1{fill:#565656;}.cls-2{fill:#006adb;}.cls-2,.cls-3{fill-rule:evenodd;}.cls-3{fill:#f88829;}</style></defs><title>Asset 3</title><g id="Layer_2" data-name="Layer 2"><g id="Capa_1" data-name="Capa 1"><path class="cls-1" d="M1.8,58.46c0-1.05,0-2.16,0-3.15h2c0,.37.09,1.27.08,1.88A3.8,3.8,0,0,1,7.45,55a3.36,3.36,0,0,1,3.38,2.19A4.15,4.15,0,0,1,14.72,55c2,0,3.85,1.18,3.85,4.48v8H16.49V59.75c0-1.41-.51-2.91-2.41-2.91s-2.85,1.51-2.85,3.67v7H9.16v-7.7c0-1.57-.44-3-2.36-3s-2.91,1.59-2.91,3.92v6.75H1.8Z" transform="translate(-1.78)"/><path class="cls-1" d="M22.27,55.31c2,5.85,3.06,9.09,3.38,10.33h0c.39-1.38,1.26-4.17,3.26-10.33h2.13L26.68,68.08c-1.24,3.58-2.16,4.48-4.66,4.48a10.53,10.53,0,0,1-1.31-.08V70.65a8,8,0,0,0,1,.06c1.55,0,2.14-.68,2.86-2.72L20,55.31Z" transform="translate(-1.78)"/><path class="cls-1" d="M33.21,50.77h6c4.71,0,7.89,3.21,7.89,8.21s-3.1,8.54-8,8.54H33.21Zm2.23,14.87H39c3.94,0,5.82-2.83,5.82-6.62,0-3.3-1.71-6.36-5.81-6.36H35.44Z" transform="translate(-1.78)"/><path class="cls-1" d="M50.07,67.52V50.77H53c2.4,3.92,7.63,12.25,8.57,14.07h0c-.16-2.15-.15-4.79-.15-7.53V50.77h2.1V67.52H60.8c-2.21-3.63-7.66-12.6-8.71-14.48h0c.12,1.91.12,4.75.12,7.78v6.7Z" transform="translate(-1.78)"/><path class="cls-1" d="M69.81,62.5l-1.8,5H65.8l6-16.75H74.5l6.22,16.75H78.35l-1.86-5Zm6.11-1.91c-1.59-4.4-2.47-6.74-2.83-8h0c-.41,1.42-1.39,4.25-2.67,8Z" transform="translate(-1.78)"/><path class="cls-1" d="M82.52,58.46c0-1.05,0-2.16,0-3.15h2c0,.37.09,1.27.09,1.88A3.77,3.77,0,0,1,88.17,55a3.35,3.35,0,0,1,3.38,2.19A4.15,4.15,0,0,1,95.44,55c2,0,3.85,1.18,3.85,4.48v8H97.21V59.75c0-1.41-.51-2.91-2.41-2.91S92,58.35,92,60.51v7H89.88v-7.7c0-1.57-.44-3-2.36-3s-2.9,1.59-2.9,3.92v6.75h-2.1Z" transform="translate(-1.78)"/><path class="cls-1" d="M110.66,64.86a19.14,19.14,0,0,0,.17,2.66h-2a7.58,7.58,0,0,1-.2-1.6c-.42.82-1.4,1.89-3.77,1.89-2.87,0-4.1-1.87-4.1-3.73,0-2.72,2.14-4,5.77-4h2.08v-1c0-1.08-.35-2.39-2.63-2.39-2,0-2.38,1-2.61,2h-2C101.48,57,102.52,55,106,55c3,0,4.63,1.23,4.63,4Zm-2.06-3.29h-2c-2.44,0-3.74.67-3.74,2.39a2.15,2.15,0,0,0,2.38,2.2c2.94,0,3.33-2,3.33-4.2Z" transform="translate(-1.78)"/><path class="cls-1" d="M115,66v6.31h-2.1v-14c0-1,0-2,0-3h2a19.14,19.14,0,0,1,.07,1.92A4.21,4.21,0,0,1,119,55c2.83,0,4.88,2.37,4.88,6.09,0,4.35-2.36,6.7-5.31,6.7A3.72,3.72,0,0,1,115,66Zm6.7-4.82c0-2.59-1.18-4.36-3.27-4.36-2.53,0-3.53,1.6-3.53,4.57S115.75,66,118.3,66C120.53,66,121.73,64.2,121.73,61.19Z" transform="translate(-1.78)"/><path class="cls-2" d="M48.85,3.43c0,5.91,3.75,8.45,9.51,11.53a36.88,36.88,0,0,0,5.2-3.18h-7a1.2,1.2,0,0,1,0-2.39H66a9.35,9.35,0,0,0,1.25-2.26h-15a1.19,1.19,0,1,1,0-2.38H67.79a11.2,11.2,0,0,0,.07-1.32.78.78,0,0,1,0-.22,15.75,15.75,0,0,0-19.06,0A1.5,1.5,0,0,1,48.85,3.43Z" transform="translate(-1.78)"/><path class="cls-2" d="M50.17,20.28a25.29,25.29,0,0,1,5.68-4,25.64,25.64,0,0,1-5.8-4.08,11.74,11.74,0,0,1-3.47-7,15.7,15.7,0,0,0-4,10.49c0,3.49,2.63,8,4.22,10.33A11.79,11.79,0,0,1,50.17,20.28Z" transform="translate(-1.78)"/><path class="cls-3" d="M62,19.73a1.19,1.19,0,1,1,1.29-2c2.66,1.7,5.65,4.14,6.64,8.37,1.59-2.32,4.23-6.84,4.23-10.33a15.69,15.69,0,0,0-4-10.49,11.79,11.79,0,0,1-3.58,7.07,33,33,0,0,1-7.63,5,39.36,39.36,0,0,0-5.84,3.54h7.19a1.19,1.19,0,0,1,0,2.38H50.71a9.51,9.51,0,0,0-1.24,2.26h15a1.2,1.2,0,1,1,0,2.39H48.92a9.22,9.22,0,0,0-.07.94c2.62,3.94,9.17,15.32,9.51,18.8.33-3.48,6.88-14.86,9.5-18.8C67.73,24.07,64.82,21.56,62,19.73Z" transform="translate(-1.78)"/></g></g></svg>